<svg xmlns="http://www.w3.org/2000/svg" width="468.567" height="364.789" viewBox="0 0 468.567 364.789"><defs><style>.a{fill:#e6e6e6;}.b{fill:#fff;}.c,.d{fill:#6c63ff;}.c{opacity:0.3;}.e{fill:#ffb8b8;}.f{fill:#2f2e41;}</style></defs><g transform="translate(0 0)"><path class="a" d="M202.48,126.5a18.032,18.032,0,0,0-18.012,18.012V473.278a18.032,18.032,0,0,0,18.012,18.011H382.561a18.032,18.032,0,0,0,18.012-18.011V144.512A18.032,18.032,0,0,0,382.561,126.5Z" transform="translate(-184.468 -126.5)"/><path class="b" d="M216.282,144.65a13.68,13.68,0,0,0-13.665,13.665V475.307a13.681,13.681,0,0,0,13.665,13.665H384.59a13.681,13.681,0,0,0,13.665-13.665V158.315A13.68,13.68,0,0,0,384.59,144.65Z" transform="translate(-192.384 -134.417)"/><path class="a" d="M392.18,227.3H229.65a3.013,3.013,0,0,1-3.01-3.01V183.974a3.013,3.013,0,0,1,3.01-3.01H392.18a3.013,3.013,0,0,1,3.01,3.01V224.29A3.013,3.013,0,0,1,392.18,227.3ZM229.65,182.168a1.808,1.808,0,0,0-1.806,1.806V224.29a1.808,1.808,0,0,0,1.806,1.806H392.18a1.808,1.808,0,0,0,1.806-1.806V183.974a1.808,1.808,0,0,0-1.806-1.806Z" transform="translate(-202.862 -150.256)"/><path class="a" d="M392.18,483.684H229.65a3.013,3.013,0,0,1-3.01-3.01V406.046a3.013,3.013,0,0,1,3.01-3.01H392.18a3.013,3.013,0,0,1,3.01,3.01v74.629a3.013,3.013,0,0,1-3.01,3.01ZM229.65,404.24a1.808,1.808,0,0,0-1.806,1.806v74.629a1.808,1.808,0,0,0,1.806,1.806H392.18a1.808,1.808,0,0,0,1.806-1.806V406.046a1.808,1.808,0,0,0-1.806-1.806Z" transform="translate(-202.862 -247.12)"/><path class="a" d="M459.9,338.336H387.663a3.013,3.013,0,0,1-3.01-3.01V295.01a3.013,3.013,0,0,1,3.01-3.01H459.9a3.013,3.013,0,0,1,3.01,3.01v40.317a3.013,3.013,0,0,1-3.01,3.01ZM387.663,293.2a1.808,1.808,0,0,0-1.806,1.806v40.317a1.808,1.808,0,0,0,1.806,1.806H459.9a1.808,1.808,0,0,0,1.806-1.806V295.009A1.808,1.808,0,0,0,459.9,293.2Z" transform="translate(-271.785 -198.688)"/><path class="a" d="M301.886,656.179H229.65a3.013,3.013,0,0,1-3.01-3.01v-75.23a3.013,3.013,0,0,1,3.01-3.01h72.236a3.013,3.013,0,0,1,3.01,3.01v75.231a3.013,3.013,0,0,1-3.01,3.01ZM229.65,576.133a1.808,1.808,0,0,0-1.806,1.806v75.231a1.808,1.808,0,0,0,1.806,1.806h72.236a1.808,1.808,0,0,0,1.806-1.806V577.938a1.808,1.808,0,0,0-1.806-1.806Z" transform="translate(-202.862 -322.097)"/><path class="a" d="M459.9,656.179H387.663a3.013,3.013,0,0,1-3.01-3.01v-75.23a3.013,3.013,0,0,1,3.01-3.01H459.9a3.013,3.013,0,0,1,3.01,3.01v75.231A3.013,3.013,0,0,1,459.9,656.179Zm-72.236-80.046a1.808,1.808,0,0,0-1.806,1.806v75.231a1.808,1.808,0,0,0,1.806,1.806H459.9a1.808,1.808,0,0,0,1.806-1.806V577.938a1.808,1.808,0,0,0-1.806-1.806Z" transform="translate(-271.785 -322.097)"/><circle class="a" cx="12.26" cy="12.26" r="12.26" transform="translate(38.577 170.092)"/><path class="a" d="M323.274,435.428a2.043,2.043,0,0,0,0,4.087h96.332a2.043,2.043,0,1,0,0-4.087Z" transform="translate(-244.121 -261.249)"/><path class="a" d="M323.271,457.174a2.043,2.043,0,0,0-.009,4.087h41.46a2.043,2.043,0,0,0,0-4.087Z" transform="translate(-244.118 -270.735)"/><path class="a" d="M255.774,491.938c-1.554,0-2.819.917-2.819,2.043s1.265,2.043,2.819,2.043H388.682c1.554,0,2.819-.917,2.819-2.043s-1.265-2.043-2.819-2.043Z" transform="translate(-214.341 -285.898)"/><path class="a" d="M255.774,513.684c-1.554,0-2.819.917-2.819,2.043s1.265,2.043,2.819,2.043H388.682c1.554,0,2.819-.917,2.819-2.043s-1.265-2.043-2.819-2.043Z" transform="translate(-214.341 -295.383)"/><circle class="a" cx="12.26" cy="12.26" r="12.26" transform="translate(39.781 40.068)"/><path class="a" d="M325.41,204.815a2.043,2.043,0,1,0,0,4.087h96.331a2.043,2.043,0,1,0,.009-4.087H325.41Z" transform="translate(-245.053 -160.66)"/><path class="a" d="M325.41,226.56a2.043,2.043,0,1,0,0,4.087h41.452a2.043,2.043,0,1,0,.009-4.087H325.41Z" transform="translate(-245.053 -170.145)"/><path class="a" d="M307.56,344.857H239.8l15.947-27.621a3.256,3.256,0,0,1,5.64,0l6.812,11.8,11.583-20.063a4.077,4.077,0,0,1,7.062,0Zm-65.678-1.2h63.593L285.8,309.574a2.873,2.873,0,0,0-4.976,0L268.2,331.443l-7.855-13.605a2.052,2.052,0,0,0-3.555,0Z" transform="translate(-208.601 -205.202)"/><path class="a" d="M461.3,344.857H393.54l15.947-27.621a3.256,3.256,0,0,1,5.64,0l6.812,11.8,11.583-20.063a4.077,4.077,0,0,1,7.062,0Zm-65.678-1.2h63.593l-19.676-34.079a2.873,2.873,0,0,0-4.976,0L421.94,331.443l-7.856-13.605a2.052,2.052,0,0,0-3.555,0Z" transform="translate(-275.662 -205.202)"/><path class="a" d="M301.886,338.336H229.65a3.013,3.013,0,0,1-3.01-3.01V295.01a3.013,3.013,0,0,1,3.01-3.01h72.236a3.013,3.013,0,0,1,3.01,3.01v40.317A3.013,3.013,0,0,1,301.886,338.336ZM229.65,293.2a1.808,1.808,0,0,0-1.806,1.806v40.317a1.808,1.808,0,0,0,1.806,1.806h72.236a1.808,1.808,0,0,0,1.806-1.806V295.009a1.808,1.808,0,0,0-1.806-1.806Z" transform="translate(-202.862 -198.688)"/><path class="a" d="M257.7,602.445a2.043,2.043,0,1,0,0,4.087h41.452a2.043,2.043,0,1,0,0-4.087Z" transform="translate(-215.518 -334.1)"/><path class="a" d="M257.7,623.8a2.043,2.043,0,0,0,0,4.087h41.452a2.043,2.043,0,0,0,0-4.087Z" transform="translate(-215.518 -343.413)"/><path class="a" d="M286.087,671.62a12.862,12.862,0,1,1,12.862-12.862h0A12.877,12.877,0,0,1,286.087,671.62Zm0-24.521a11.658,11.658,0,1,0,11.658,11.658h0A11.672,11.672,0,0,0,286.087,647.1Z" transform="translate(-223.182 -353.052)"/><path class="a" d="M457.162,688.359a2.043,2.043,0,1,0,0-4.087H415.71a2.043,2.043,0,0,0,0,4.087Z" transform="translate(-284.441 -369.792)"/><path class="a" d="M457.162,667.005a2.043,2.043,0,1,0,0-4.087H415.71a2.043,2.043,0,1,0,0,4.087Z" transform="translate(-284.441 -360.477)"/><path class="a" d="M444.1,602.445a12.862,12.862,0,1,1-12.862,12.862h0A12.877,12.877,0,0,1,444.1,602.445Zm0,24.521a11.658,11.658,0,1,0-11.658-11.658h0A11.672,11.672,0,0,0,444.1,626.966Z" transform="translate(-292.105 -334.1)"/><circle class="c" cx="30.446" cy="30.446" r="30.446" transform="translate(101.846 44.086)"/><circle class="c" cx="20.297" cy="20.297" r="20.297" transform="translate(111.995 54.235)"/><circle class="d" cx="14.095" cy="14.095" r="14.095" transform="translate(118.197 60.437)"/><circle class="c" cx="22.508" cy="22.508" r="22.508" transform="translate(40.435 257.817)"/><circle class="c" cx="15.006" cy="15.006" r="15.006" transform="translate(47.937 265.32)"/><circle class="d" cx="10.42" cy="10.42" r="10.42" transform="translate(52.522 269.905)"/><circle class="c" cx="25.891" cy="25.891" r="25.891" transform="translate(130.645 166.479)"/><circle class="c" cx="17.261" cy="17.261" r="17.261" transform="translate(139.276 175.109)"/><circle class="d" cx="11.987" cy="11.987" r="11.987" transform="translate(144.55 180.383)"/><path class="e" d="M661.775,494.71l-5.326,9a6.718,6.718,0,0,1-10.614,1.244h0a6.718,6.718,0,0,1,.9-10.11l8.663-6.264c8.318-11.26,13.1-30.4,17.171-51.109l16.927,1.985C685.13,456.393,674.7,475.174,661.775,494.71Z" transform="translate(-384.887 -262.139)"/><path class="a" d="M679.284,417.036l27.525,7.805V376.776l-3.654,1.182a21.143,21.143,0,0,0-13.625,13.659Z" transform="translate(-400.299 -235.666)"/><path class="f" d="M734.746,665.76l-10.27-.411c-3.373-34.712-7.679-66.235-16.433-82.574-8.477,9.08-10.4,37.766-11.821,76.822H686.27c-10.462-45.009-13.1-76.921,0-107.223h53.406Z" transform="translate(-399.479 -312.26)"/><path class="f" d="M693.67,746.97l-17.826,9.107a3.924,3.924,0,0,1-5.385-1.93h0a3.925,3.925,0,0,1,1.574-4.926l2.431-1.465,6.768-10.119,11.536-.911,2.11,2.022a5.1,5.1,0,0,1-1.208,8.221Z" transform="translate(-396.307 -392.671)"/><path class="f" d="M757.527,759.376l-20.01.562a3.924,3.924,0,0,1-4.033-4.057h0a3.924,3.924,0,0,1,3.538-3.772l2.824-.278,10.46-6.228,10.808,4.135,1.036,2.733a5.1,5.1,0,0,1-4.624,6.9Z" transform="translate(-423.939 -396.543)"/><circle class="e" cx="13.431" cy="13.431" r="13.431" transform="translate(299.813 105.361)"/><path class="e" d="M756.7,362.288l-27.935,10.681c1.627-8.771,1.647-17.033-1.027-24.443l17.87-3.081C744.109,353.149,748.754,358.382,756.7,362.288Z" transform="translate(-421.434 -222)"/><path class="a" d="M752.79,480.727C728.2,485.4,708.4,482.4,692.4,473.332c7.4-25.5,8.454-53.721,6.517-83.216a14.254,14.254,0,0,1,8.656-14.043l7.01-2.979c3.78,8.589,12.491,3.64,21.773-2.876l11.469,5.068a9.769,9.769,0,0,1,5.807,9.505C751.341,423.973,748.258,465.979,752.79,480.727Z" transform="translate(-406.02 -232.806)"/><path class="e" d="M802.317,508.346l-.731,10.479a7.246,7.246,0,0,1-7.69,6.727h0a7.246,7.246,0,0,1-5.683-11.072l5.888-9.421c3.479-13.561.719-33.092-3.286-53.817l16.433-4.519C809.568,464.063,806.954,485.387,802.317,508.346Z" transform="translate(-447.331 -266.177)"/><path class="f" d="M743.616,311.567s2.511-5.524-4.017-8.034c0,0-5.524-9.039-16.571-3.013,0,0-7.532,3.013-7.532,11.047s-2.511,9.541-2.511,9.541,3.739-3.836,4.743-6.849,8.815-3.7,11.828-.684,10.545,2.511,10.545,2.511l-.5,11.047s2.511-6.528,3.515-6.528S745.122,311.567,743.616,311.567Z" transform="translate(-414.998 -201.501)"/><path class="a" d="M811.732,416.307l-27.524,7.805V376.047l3.654,1.182a21.144,21.144,0,0,1,13.625,13.659Z" transform="translate(-446.065 -235.348)"/><rect class="a" width="341.727" height="1.128" transform="translate(126.841 363.356)"/><path class="a" d="M867.108,609.562c7.471,10.56,9.444,70.663,9.884,89.929.011.434.023.846.028,1.235h18.91c.231-.412.445-.818.648-1.235,11.209-22.124,4.99-48.652,4.663-49.994.851,4.217-3,16.441-7.352,28.281C891.234,641.372,868.529,611.4,867.108,609.562Z" transform="translate(-482.224 -337.204)"/></g></svg>